<?xml version="1.0" encoding="UTF-8" standalone="no"?>
<!-- Created with Inkscape (http://www.inkscape.org/) -->

<svg
   xmlns:dc="http://purl.org/dc/elements/1.1/"
   xmlns:cc="http://creativecommons.org/ns#"
   xmlns:rdf="http://www.w3.org/1999/02/22-rdf-syntax-ns#"
   xmlns:svg="http://www.w3.org/2000/svg"
   xmlns="http://www.w3.org/2000/svg"
   xmlns:sodipodi="http://sodipodi.sourceforge.net/DTD/sodipodi-0.dtd"
   xmlns:inkscape="http://www.inkscape.org/namespaces/inkscape"
   version="1.1"
   id="svg869"
   width="59.964066"
   height="165.94353"
   viewBox="0 0 59.964066 165.94353"
   sodipodi:docname="guitar-logo.png"
   inkscape:version="0.92.5 (2060ec1f9f, 2020-04-08)">
  <metadata
     id="metadata875">
    <rdf:RDF>
      <cc:Work
         rdf:about="">
        <dc:format>image/svg+xml</dc:format>
        <dc:type
           rdf:resource="http://purl.org/dc/dcmitype/StillImage" />
        <dc:title></dc:title>
      </cc:Work>
    </rdf:RDF>
  </metadata>
  <defs
     id="defs873" />
  <sodipodi:namedview
     pagecolor="#ffffff"
     bordercolor="#666666"
     borderopacity="1"
     objecttolerance="10"
     gridtolerance="10"
     guidetolerance="10"
     inkscape:pageopacity="0"
     inkscape:pageshadow="2"
     inkscape:window-width="1366"
     inkscape:window-height="716"
     id="namedview871"
     showgrid="false"
     fit-margin-top="0"
     fit-margin-left="0"
     fit-margin-right="0"
     fit-margin-bottom="0"
     inkscape:zoom="2.9756098"
     inkscape:cx="29.522346"
     inkscape:cy="85.02255"
     inkscape:window-x="0"
     inkscape:window-y="0"
     inkscape:window-maximized="1"
     inkscape:current-layer="g879" />
  <g
     id="g879"
     transform="translate(0.85841139,0.93738413)">
    <path
       style="fill:#dcdcda"
       d="M 46.495135,154.79735 C 40.447811,149.82221 34.042632,144.63303 32.261404,143.26583 L 29.022809,140.78002 15.0082,148.89001 C 7.3001648,153.3505 0.78701284,157 0.53452874,157 0.28204464,157 2.5860876,151.7125 5.6546243,145.25 8.7231609,138.7875 13.462111,128.75396 16.185624,122.95324 L 21.137467,112.40649 11.473454,94.631855 C 6.1582472,84.855809 1.9648172,76.722199 2.1547208,76.557167 2.3446243,76.392136 7.225,79.858417 13,84.260014 c 6.001284,4.574067 9.428877,7.735705 8,7.379261 -1.375,-0.343003 -3.514063,-0.905052 -4.753472,-1.248998 -2.188877,-0.60743 -2.137441,-0.299326 1.79436,10.748383 l 4.047833,11.37374 -6.422605,16.9938 c -3.532432,9.34659 -6.2722292,17.16147 -6.0884369,17.36639 0.1837922,0.20492 4.4071079,-1.25758 9.3851459,-3.25 C 23.940863,141.63017 28.39064,140 28.851218,140 c 0.460577,0 5.658228,3.375 11.550334,7.5 5.892106,4.125 10.892225,7.5 11.111376,7.5 0.219151,0 -2.619105,-8.75022 -6.307236,-19.44494 L 38.5,116.11012 l 4.800925,-9.6708 c 2.640509,-5.31894 4.56917,-9.902558 4.285913,-10.185815 -0.283257,-0.283257 -2.429152,-0.02915 -4.768656,0.564677 -2.339504,0.593829 -4.404384,0.928949 -4.588622,0.744711 -0.184239,-0.184238 3.398998,-2.376002 7.962748,-4.870585 4.563749,-2.494584 8.424849,-4.408485 8.58022,-4.253113 0.155371,0.155371 -3.104886,6.177469 -7.245017,13.382435 C 43.38738,109.0266 40,115.57997 40,116.38468 c 0,0.8047 4.040432,11.70691 8.978739,24.22713 4.938306,12.52023 8.873616,22.86917 8.745134,22.99765 -0.128482,0.12848 -5.181414,-3.83697 -11.228738,-8.81211 z M 26.449558,80 c 0,-18.975 0.134476,-26.7375 0.298835,-17.25 0.164359,9.4875 0.164359,25.0125 0,34.5 -0.164359,9.4875 -0.298835,1.725 -0.298835,-17.25 z M 34,68.5 c 0,-17 0.358491,-26.5 1,-26.5 0.641509,0 1,9.5 1,26.5 0,17 -0.358491,26.5 -1,26.5 -0.641509,0 -1,-9.5 -1,-26.5 z M 16.714286,20.785714 C 12.458114,9.7335532 9.0937379,0.58310294 9.2378954,0.45138047 9.3820529,0.31965801 11.926103,2.9767109 14.89134,6.3559425 c 2.965236,3.3792316 7.192969,8.1172725 9.394961,10.5289785 l 4.003622,4.384922 8.979335,-9.677291 c 4.938635,-5.3225101 9.15092,-9.505707 9.360634,-9.2959933 0.209714,0.2097137 -1.568058,5.06628 -3.950604,10.7923693 C 40.296742,18.815018 38.009524,24.4 37.596582,25.5 c -0.695848,1.853607 -0.86427,1.785393 -2.30096,-0.931942 L 33.745467,21.636115 30.870513,25.068058 27.99556,28.5 24.99778,25.234223 c -3.490683,-3.802744 -3.465534,-3.920956 -1.438819,6.763015 0.857428,4.519995 1.409304,8.36783 1.22639,8.550744 -0.182914,0.182914 -3.814893,-8.710107 -8.071065,-19.762268 z"
       id="path887"
       inkscape:connector-curvature="0" />
    <path
       sodipodi:type="inkscape:offset"
       inkscape:radius="0"
       inkscape:original="M 9.2382812 0.45117188 C 9.0941238 0.58289435 12.458672 9.7329954 16.714844 20.785156 C 20.971016 31.837317 24.602242 40.731742 24.785156 40.548828 C 24.96807 40.365914 24.416022 36.518042 23.558594 31.998047 C 21.531879 21.314076 21.507364 21.431631 24.998047 25.234375 L 27.996094 28.5 L 30.871094 25.068359 L 33.746094 21.636719 L 35.294922 24.568359 C 36.731612 27.285694 36.899855 27.353607 37.595703 25.5 C 38.008645 24.4 40.297142 18.815934 42.679688 13.089844 C 45.062233 7.3637544 46.840573 2.5065887 46.630859 2.296875 C 46.421145 2.0871613 42.208166 6.2692868 37.269531 11.591797 L 28.289062 21.269531 L 24.287109 16.884766 C 22.085117 14.47306 17.855861 9.7347003 14.890625 6.3554688 C 11.925388 2.9762372 9.3824388 0.31944942 9.2382812 0.45117188 z M 35 42 C 34.358491 42 34 51.5 34 68.5 C 34 85.5 34.358491 95 35 95 C 35.641509 95 36 85.5 36 68.5 C 36 51.5 35.641509 42 35 42 z M 26.748047 62.75 C 26.583688 53.2625 26.449219 61.025 26.449219 80 C 26.449219 98.975 26.583688 106.7375 26.748047 97.25 C 26.912406 87.7625 26.912406 72.2375 26.748047 62.75 z M 2.1542969 76.556641 C 1.9643933 76.721673 6.1574494 84.856766 11.472656 94.632812 L 21.136719 112.40625 L 16.185547 122.95312 C 13.462034 128.75385 8.7228335 138.7875 5.6542969 145.25 C 2.5857602 151.7125 0.29135568 157 0.5546875 157 C 0.81801931 157 6.8388054 153.62531 13.935547 149.5 C 21.032288 145.37468 27.470415 141.7571 28.242188 141.46094 C 29.072034 141.1425 35.331224 145.60696 43.560547 152.38867 C 51.213965 158.69579 57.584509 163.74948 57.716797 163.61719 C 57.849086 163.4849 53.916822 153.13156 48.978516 140.61133 C 44.040209 128.09111 40 117.18947 40 116.38477 C 40 115.58006 43.387213 109.02724 47.527344 101.82227 C 51.667475 94.6173 54.928809 88.594824 54.773438 88.439453 C 54.618067 88.284081 50.755155 90.196822 46.191406 92.691406 C 41.627656 95.185989 38.04623 97.378262 38.230469 97.5625 C 38.414707 97.746738 40.478855 97.412188 42.818359 96.818359 C 45.157863 96.224532 47.302681 95.970649 47.585938 96.253906 C 47.869194 96.537163 45.94129 101.12051 43.300781 106.43945 L 38.5 116.10938 L 45.205078 135.55469 C 48.893209 146.24941 51.732823 155 51.513672 155 C 51.294521 155 46.29445 151.625 40.402344 147.5 C 34.510238 143.375 29.31214 140 28.851562 140 C 28.390985 140 23.940929 141.63063 18.962891 143.62305 C 13.984853 145.61547 9.7619172 147.07797 9.578125 146.87305 C 9.3943327 146.66813 12.133584 138.85245 15.666016 129.50586 L 22.087891 112.51172 L 18.041016 101.13867 C 14.109215 90.090963 14.057217 89.783195 16.246094 90.390625 C 17.485503 90.734571 19.625 91.295669 21 91.638672 C 22.428877 91.995116 19.001284 88.833833 13 84.259766 C 7.225 79.858169 2.3442004 76.39161 2.1542969 76.556641 z "
       style="fill:#aab829"
       id="path885"
       d="M 9.2382812,0.45117188 C 9.0941238,0.58289435 12.458672,9.7329954 16.714844,20.785156 c 4.256172,11.052161 7.887398,19.946586 8.070312,19.763672 0.182914,-0.182914 -0.369134,-4.030786 -1.226562,-8.550781 -2.026715,-10.683971 -2.05123,-10.566416 1.439453,-6.763672 L 27.996094,28.5 l 2.875,-3.431641 2.875,-3.43164 1.548828,2.93164 c 1.43669,2.717335 1.604933,2.785248 2.300781,0.931641 0.412942,-1.1 2.701439,-6.684066 5.083985,-12.410156 2.382545,-5.7260896 4.160885,-10.5832553 3.951171,-10.792969 -0.209714,-0.2097137 -4.422693,3.9724118 -9.361328,9.294922 l -8.980469,9.677734 -4.001953,-4.384765 C 22.085117,14.47306 17.855861,9.7347003 14.890625,6.3554688 11.925388,2.9762372 9.3824388,0.31944942 9.2382812,0.45117188 Z M 35,42 c -0.641509,0 -1,9.5 -1,26.5 0,17 0.358491,26.5 1,26.5 0.641509,0 1,-9.5 1,-26.5 C 36,51.5 35.641509,42 35,42 Z M 26.748047,62.75 C 26.583688,53.2625 26.449219,61.025 26.449219,80 c 0,18.975 0.134469,26.7375 0.298828,17.25 0.164359,-9.4875 0.164359,-25.0125 0,-34.5 z M 2.1542969,76.556641 c -0.1899036,0.165032 4.0031525,8.300125 9.3183591,18.076171 l 9.664063,17.773438 -4.951172,10.54687 C 13.462034,128.75385 8.7228335,138.7875 5.6542969,145.25 2.5857602,151.7125 0.29135568,157 0.5546875,157 c 0.26333181,0 6.2841179,-3.37469 13.3808595,-7.5 7.096741,-4.12532 13.534868,-7.7429 14.306641,-8.03906 0.829846,-0.31844 7.089036,4.14602 15.318359,10.92773 7.653418,6.30712 14.023962,11.36081 14.15625,11.22852 0.132289,-0.13229 -3.799975,-10.48563 -8.738281,-23.00586 C 44.040209,128.09111 40,117.18947 40,116.38477 c 0,-0.80471 3.387213,-7.35753 7.527344,-14.5625 4.140131,-7.20497 7.401465,-13.227446 7.246094,-13.382817 -0.155371,-0.155372 -4.018283,1.757369 -8.582032,4.251953 -4.56375,2.494583 -8.145176,4.686856 -7.960937,4.871094 0.184238,0.184238 2.248386,-0.150312 4.58789,-0.744141 2.339504,-0.593827 4.484322,-0.84771 4.767579,-0.564453 0.283256,0.283257 -1.644648,4.866604 -4.285157,10.185544 L 38.5,116.10938 45.205078,135.55469 C 48.893209,146.24941 51.732823,155 51.513672,155 51.294521,155 46.29445,151.625 40.402344,147.5 34.510238,143.375 29.31214,140 28.851562,140 c -0.460577,0 -4.910633,1.63063 -9.888671,3.62305 -4.978038,1.99242 -9.2009738,3.45492 -9.384766,3.25 -0.1837923,-0.20492 2.555459,-8.0206 6.087891,-17.36719 l 6.421875,-16.99414 -4.046875,-11.37305 C 14.109215,90.090963 14.057217,89.783195 16.246094,90.390625 17.485503,90.734571 19.625,91.295669 21,91.638672 22.428877,91.995116 19.001284,88.833833 13,84.259766 7.225,79.858169 2.3442004,76.39161 2.1542969,76.556641 Z" />
    <path
       sodipodi:type="inkscape:offset"
       inkscape:radius="1.3856339"
       inkscape:original="M 9.2382812 0.45117188 C 9.0941238 0.58289435 12.458672 9.7329954 16.714844 20.785156 C 20.971016 31.837317 24.602242 40.731742 24.785156 40.548828 C 24.96807 40.365914 24.416022 36.518042 23.558594 31.998047 C 21.531879 21.314076 21.507364 21.431631 24.998047 25.234375 L 27.996094 28.5 L 30.871094 25.068359 L 33.746094 21.636719 L 35.294922 24.568359 C 36.731612 27.285694 36.899855 27.353607 37.595703 25.5 C 38.008645 24.4 40.297142 18.815934 42.679688 13.089844 C 45.062233 7.3637544 46.840573 2.5065887 46.630859 2.296875 C 46.421145 2.0871613 42.208166 6.2692868 37.269531 11.591797 L 28.289062 21.269531 L 24.287109 16.884766 C 22.085117 14.47306 17.855861 9.7347003 14.890625 6.3554688 C 11.925388 2.9762372 9.3824388 0.31944942 9.2382812 0.45117188 z M 26.748047 62.75 C 26.583688 53.2625 26.449219 61.025 26.449219 80 C 26.449219 98.975 26.583688 106.7375 26.748047 97.25 C 26.912406 87.7625 26.912406 72.2375 26.748047 62.75 z M 2.1542969 76.556641 C 1.9643933 76.721673 6.1574494 84.856766 11.472656 94.632812 L 21.136719 112.40625 L 16.185547 122.95312 C 13.462034 128.75385 8.7228335 138.7875 5.6542969 145.25 C 2.5857602 151.7125 0.29135568 157 0.5546875 157 C 0.81801931 157 6.8388054 153.62531 13.935547 149.5 C 21.032288 145.37468 27.470415 141.7571 28.242188 141.46094 C 29.072034 141.1425 35.331224 145.60696 43.560547 152.38867 C 51.213965 158.69579 57.584509 163.74948 57.716797 163.61719 C 57.849086 163.4849 53.916822 153.13156 48.978516 140.61133 C 44.040209 128.09111 40 117.18947 40 116.38477 C 40 115.58006 43.387213 109.02724 47.527344 101.82227 C 51.667475 94.6173 54.928809 88.594824 54.773438 88.439453 C 54.618067 88.284081 50.755155 90.196822 46.191406 92.691406 C 41.627656 95.185989 38.04623 97.378262 38.230469 97.5625 C 38.414707 97.746738 40.478855 97.412188 42.818359 96.818359 C 45.157863 96.224532 47.302681 95.970649 47.585938 96.253906 C 47.869194 96.537163 45.94129 101.12051 43.300781 106.43945 L 38.5 116.10938 L 45.205078 135.55469 C 48.893209 146.24941 51.732823 155 51.513672 155 C 51.294521 155 46.29445 151.625 40.402344 147.5 C 34.510238 143.375 29.31214 140 28.851562 140 C 28.390985 140 23.940929 141.63063 18.962891 143.62305 C 13.984853 145.61547 9.7619172 147.07797 9.578125 146.87305 C 9.3943327 146.66813 12.133584 138.85245 15.666016 129.50586 L 22.087891 112.51172 L 18.041016 101.13867 C 14.109215 90.090963 14.057217 89.783195 16.246094 90.390625 C 17.485503 90.734571 19.625 91.295669 21 91.638672 C 22.428877 91.995116 19.001284 88.833833 13 84.259766 C 7.225 79.858169 2.3442004 76.39161 2.1542969 76.556641 z "
       style="fill:#571813"
       id="path883"
       d="m 9.4492188,-0.92578125 c -0.239549,-0.0332421 -0.7407372,-0.0172316 -1.1464844,0.35351563 -5.631e-4,5.1454e-4 -0.2069309,0.23047488 -0.265625,0.33203124 -0.058694,0.10155637 -0.092793,0.18947556 -0.1171875,0.26367188 -0.048788,0.14839264 -0.059876,0.245755 -0.066406,0.32226562 -0.013061,0.15302125 -0.00266,0.22676126 0.00391,0.2890625 0.013137,0.12460249 0.029201,0.18775439 0.044922,0.25585938 0.031442,0.13621 0.067186,0.2639324 0.1152343,0.421875 0.096097,0.3158853 0.2362183,0.7366737 0.4199219,1.2695312 0.3674073,1.0657151 0.9084879,2.5721807 1.587891,4.4199219 1.358805,3.6954819 3.266317,8.7497649 5.396484,14.2812499 2.13078,5.533077 4.104203,10.52568 5.572266,14.121094 0.734031,1.797707 1.340635,3.242795 1.783203,4.246094 0.221284,0.501649 0.399538,0.888465 0.546875,1.179687 0.07367,0.145611 0.132299,0.259722 0.226562,0.404297 0.04713,0.07229 0.08149,0.145803 0.25,0.306641 0.08425,0.08042 0.191598,0.206283 0.525391,0.320312 0.333793,0.114029 1.087144,0.02028 1.439453,-0.332031 0.502442,-0.502442 0.394247,-0.707716 0.416016,-0.855469 0.02177,-0.147753 0.02285,-0.247406 0.02344,-0.351562 0.0012,-0.208314 -0.01146,-0.417898 -0.0332,-0.669922 -0.04348,-0.504048 -0.124951,-1.159194 -0.238281,-1.949219 -0.226661,-1.58005 -0.581688,-3.685655 -1.013672,-5.962891 -0.474196,-2.499758 -0.812158,-4.292911 -1.042969,-5.671875 0.04606,0.05008 0.05238,0.05206 0.09961,0.103516 l 2.998047,3.265625 a 1.3857725,1.3857725 0 0 0 2.083985,-0.04687 l 2.875,-3.431641 1.550781,-1.851562 0.585937,1.107422 a 1.3857725,1.3857725 0 0 0 0,0.002 c 0.363281,0.687104 0.649129,1.216556 0.923829,1.648437 0.274699,0.431881 0.418367,0.847898 1.208984,1.167969 0.395308,0.160036 1.031483,0.127856 1.416016,-0.08789 0.384533,-0.215746 0.55702,-0.468525 0.691406,-0.677734 0.268771,-0.418417 0.400634,-0.798042 0.582031,-1.28125 0.363215,-0.967537 2.685707,-6.641629 5.066406,-12.363281 1.197682,-2.878449 2.242313,-5.5372252 2.96875,-7.5214845 0.363219,-0.9921297 0.647644,-1.8117638 0.835938,-2.4316406 0.09415,-0.3099384 0.163418,-0.5641827 0.21289,-0.8085938 0.02474,-0.1222055 0.04714,-0.2365963 0.05469,-0.4121093 0.0076,-0.1755131 0.239047,-0.4738445 -0.419922,-1.1328126 -0.415119,-0.41511832 -0.951427,-0.43354879 -1.197266,-0.40039058 -0.245838,0.0331582 -0.361147,0.0918149 -0.457031,0.13671878 -0.191767,0.089808 -0.287165,0.1632198 -0.396484,0.2421875 -0.218639,0.1579352 -0.438197,0.3431426 -0.707031,0.5820312 -0.537669,0.4777772 -1.246895,1.157343 -2.105469,2.0097657 -1.717149,1.7048453 -4.014278,4.0890985 -6.494141,6.7617192 l -7.957031,8.574218 -2.986328,-3.271484 C 23.122227,13.55444 18.889603,8.812349 15.931641,5.4414062 14.438242,3.7395056 13.053244,2.2209998 12.007812,1.1289062 11.485097,0.5828595 11.051399,0.14622903 10.708984,-0.171875 10.537777,-0.33092702 10.396234,-0.45808088 10.230469,-0.58203125 10.147586,-0.64400644 10.070446,-0.7049678 9.890625,-0.79101562 9.8007143,-0.83403954 9.6887677,-0.89253915 9.4492188,-0.92578125 Z M 26.806641,57.328125 c -5.41e-4,-7.5e-5 -1.015087,0.257415 -1.015625,0.257813 -5.39e-4,3.97e-4 -0.297672,0.291878 -0.357422,0.388671 -0.239003,0.387175 -0.174113,0.418695 -0.1875,0.488282 -0.05355,0.278346 -0.04001,0.325555 -0.04883,0.505859 -0.01764,0.360608 -0.03128,0.921277 -0.04492,1.708984 -0.05458,3.150832 -0.08789,9.831493 -0.08789,19.322266 0,9.490773 0.03331,16.171434 0.08789,19.322266 0.01365,0.787704 0.02728,1.348374 0.04492,1.708984 0.0088,0.1803 -0.0047,0.22751 0.04883,0.50586 0.01339,0.0696 -0.0515,0.10111 0.1875,0.48828 0.05975,0.0968 0.356883,0.38828 0.357422,0.38867 5.38e-4,4e-4 1.015084,0.25789 1.015625,0.25782 5.4e-4,-8e-5 0.796332,-0.39985 0.796875,-0.4004 5.42e-4,-5.4e-4 0.196349,-0.24535 0.238281,-0.32421 0.167729,-0.31547 0.132386,-0.35347 0.144531,-0.41797 0.01215,-0.0645 0.01694,-0.1051 0.02148,-0.14453 0.07271,-0.63098 0.0838,-1.732914 0.125,-4.111332 0.164813,-9.513675 0.164813,-25.033201 0,-34.546876 -0.0412,-2.378418 -0.05229,-3.480349 -0.125,-4.111328 -0.0045,-0.03944 -0.0093,-0.08003 -0.02148,-0.144531 -0.01215,-0.0645 0.0232,-0.102498 -0.144531,-0.417969 -0.04193,-0.07887 -0.237739,-0.323669 -0.238281,-0.324218 -5.43e-4,-5.49e-4 -0.796335,-0.400316 -0.796875,-0.400391 z M 2.3554688,75.175781 c -0.1904848,-0.02357 -0.5995577,-0.107107 -1.109375,0.335938 -0.38796394,0.337152 -0.44606046,0.689701 -0.47070318,0.878906 -0.0246427,0.189205 -0.0120043,0.291369 -0.001953,0.373047 0.0201024,0.163356 0.0468292,0.241047 0.0703125,0.318359 0.0469666,0.154624 0.0956523,0.279059 0.1582031,0.429688 0.1251017,0.301258 0.3010275,0.68131 0.53125,1.162109 0.460445,0.961598 1.136398,2.306152 1.984375,3.951172 1.6959541,3.29004 4.0766722,7.774531 6.7382809,12.669922 l 9.328125,17.156248 -4.652343,9.91406 c -2.722039,5.79759 -7.462231,15.83162 -10.5292972,22.29102 -1.5396772,3.24264 -2.8845308,6.18809 -3.81835942,8.33984 -0.46691431,1.07588 -0.82935701,1.94982 -1.0703125,2.58594 -0.12047775,0.31806 -0.2107612,0.56814 -0.27734376,0.80859 -0.0332913,0.12023 -0.0668809,0.22018 -0.0839844,0.44336 -0.008552,0.1116 -0.0392231,0.24844 0.0664063,0.57618 0.0528147,0.16387 0.15578711,0.39888 0.40234375,0.61914 0.24655664,0.22026 0.63966188,0.35547 0.93359375,0.35547 0.37817469,0 0.40932848,-0.0568 0.484375,-0.082 0.075047,-0.0253 0.1251621,-0.0448 0.1757813,-0.0664 0.1012382,-0.0432 0.1978911,-0.09 0.3125,-0.14649 0.2292177,-0.1129 0.5211784,-0.2646 0.8847656,-0.45898 0.7271743,-0.38875 1.7299986,-0.94272 2.9472656,-1.625 2.434534,-1.36457 5.719802,-3.24288 9.273437,-5.30859 3.543119,-2.05961 6.920881,-3.9928 9.50586,-5.44532 1.292489,-0.72626 2.387192,-1.33216 3.199219,-1.77148 0.630827,-0.34129 0.915317,-0.47687 1.08789,-0.56445 0.169801,0.0746 0.388685,0.17944 0.710938,0.36523 0.762834,0.4398 1.85799,1.16237 3.185547,2.10937 2.655113,1.89401 6.260654,4.6903 10.357422,8.06641 3.832151,3.15805 7.341872,6.00347 9.917968,8.04688 1.288049,1.0217 2.340769,1.84125 3.09375,2.4082 0.376491,0.28347 0.67582,0.50266 0.91211,0.66406 0.118145,0.0807 0.212757,0.14468 0.33789,0.21485 0.06257,0.0351 0.123171,0.0711 0.271485,0.125 0.07416,0.0269 0.165583,0.0658 0.371093,0.084 0.102756,0.009 0.238577,0.014 0.431641,-0.0293 0.09653,-0.0217 0.325465,-0.11683 0.326172,-0.11718 7.07e-4,-3.6e-4 0.354952,-0.25535 0.355469,-0.25586 5.16e-4,-5.2e-4 0.220129,-0.2763 0.273437,-0.38868 0.05331,-0.11237 0.07999,-0.20269 0.09766,-0.27734 0.03532,-0.1493 0.03617,-0.23847 0.03711,-0.30859 0.0019,-0.14024 -0.01081,-0.20569 -0.01953,-0.26172 -0.01744,-0.11207 -0.03287,-0.17239 -0.05078,-0.24024 -0.03581,-0.13569 -0.0802,-0.27409 -0.136718,-0.44726 -0.113039,-0.34635 -0.278046,-0.81668 -0.494141,-1.41602 -0.43219,-1.19867 -1.065896,-2.90115 -1.859375,-4.99023 -1.586958,-4.17817 -3.806418,-9.89945 -6.277344,-16.16406 -2.466112,-6.2524 -4.70753,-12.10238 -6.330078,-16.48047 -0.811274,-2.18905 -1.468603,-4.01061 -1.917969,-5.32227 -0.224683,-0.65583 -0.398522,-1.18661 -0.509765,-1.55664 -0.05071,-0.16866 -0.08509,-0.29187 -0.107422,-0.38086 -6.2e-5,0.0677 -0.01084,0.1035 0.04883,-0.0566 0.08182,-0.21958 0.221346,-0.54714 0.404297,-0.94922 0.365902,-0.80416 0.910371,-1.90984 1.585937,-3.2168 1.351133,-2.6139 3.226124,-6.04222 5.28711,-9.6289 2.074851,-3.610815 3.93014,-6.92409 5.251953,-9.365236 0.660906,-1.220572 1.187236,-2.220206 1.548828,-2.945312 0.180796,-0.362553 0.318426,-0.651435 0.421875,-0.894531 0.05172,-0.121549 0.0946,-0.224571 0.138672,-0.371094 0.02203,-0.07326 0.04861,-0.151009 0.06641,-0.316406 0.0178,-0.165398 0.212355,-0.545458 -0.402344,-1.160157 -0.38425,-0.384252 -0.724157,-0.397089 -0.90625,-0.410156 -0.182093,-0.01307 -0.281679,0.0042 -0.365234,0.01758 -0.167111,0.02679 -0.262544,0.05823 -0.365234,0.0918 -0.205381,0.06714 -0.409879,0.15067 -0.658204,0.257813 -0.496648,0.214286 -1.149193,0.522601 -1.939453,0.914062 -1.580519,0.782922 -3.696722,1.889811 -5.992187,3.144531 -2.297919,1.256061 -4.347957,2.434927 -5.820313,3.335938 -0.736178,0.450505 -1.323746,0.82959 -1.753906,1.134765 -0.21508,0.152588 -0.383935,0.276228 -0.560547,0.439454 -0.08831,0.08161 -0.17902,0.154408 -0.318359,0.371093 -0.06967,0.108343 -0.169389,0.254149 -0.21875,0.56836 -0.04936,0.314211 0.06893,0.893151 0.394531,1.21875 0.554549,0.554548 0.810767,0.427142 1.005859,0.445312 0.195093,0.01817 0.350159,0.0117 0.519532,0.002 0.338745,-0.0195 0.717736,-0.06857 1.162109,-0.140625 0.888747,-0.144118 2.018857,-0.381943 3.222656,-0.6875 0.973102,-0.246998 1.848502,-0.399133 2.591797,-0.503906 -0.152957,0.403196 -0.265707,0.729956 -0.490234,1.263672 -0.760038,1.806665 -1.89168,4.264555 -3.201172,6.902345 l -4.800781,9.66992 a 1.3857725,1.3857725 0 0 0 -0.07031,1.06641 l 6.705078,19.44531 c 1.841825,5.34086 3.471803,10.19683 4.611328,13.70898 0.295088,0.9095 0.451611,1.43311 0.675782,2.14649 -0.127212,-0.0855 -0.18662,-0.12265 -0.320313,-0.21289 -2.004267,-1.35286 -4.723418,-3.22449 -7.664062,-5.28321 -2.957436,-2.07046 -5.740437,-3.9522 -7.853516,-5.32421 -1.05654,-0.68601 -1.943571,-1.2443 -2.617188,-1.64258 -0.336808,-0.19914 -0.617061,-0.35651 -0.861328,-0.48047 -0.122133,-0.062 -0.232557,-0.1149 -0.361328,-0.16602 -0.12877,-0.0511 -0.200492,-0.13672 -0.652344,-0.13672 -0.466381,0 -0.511122,0.0646 -0.722656,0.12305 -0.211533,0.0584 -0.457463,0.13431 -0.75,0.23047 -0.585073,0.19233 -1.348743,0.46327 -2.253906,0.79492 -1.810326,0.6633 -4.177544,1.57159 -6.677734,2.57227 -2.472114,0.98944 -4.757532,1.84932 -6.427735,2.42773 -0.186161,0.0645 -0.269142,0.0833 -0.439453,0.14063 0.265819,-0.80985 0.538662,-1.64014 0.955078,-2.82813 1.097862,-3.13208 2.664799,-7.41546 4.427735,-12.08008 l 6.421875,-16.99414 a 1.3857725,1.3857725 0 0 0 0.0078,-0.95507 l -4.046875,-11.37305 c -1.818223,-5.108907 -2.620824,-7.562473 -2.896484,-8.796877 1.274117,0.347019 2.989905,0.7999 4.214843,1.105469 0.174423,0.04351 0.358236,0.09083 0.671876,0.0625 0.313639,-0.02833 0.930308,-0.253531 1.210937,-0.802734 0.280629,-0.549204 0.149749,-0.981391 0.06641,-1.21875 -0.08334,-0.23736 -0.174416,-0.381329 -0.267578,-0.519532 -0.372649,-0.552811 -0.874051,-1.037379 -1.619141,-1.724609 -1.490178,-1.37446 -3.864826,-3.317864 -6.886718,-5.621094 C 10.942144,80.949631 8.2700628,78.976178 6.2851562,77.566406 5.292703,76.86152 4.4741501,76.297736 3.8671875,75.90625 3.5637062,75.710507 3.3188674,75.560489 3.09375,75.439453 2.9811913,75.378935 2.8835489,75.325162 2.7207031,75.265625 2.6392802,75.235856 2.5459535,75.199349 2.3554688,75.175781 Z" />
    <path
       style="fill:#2c2829"
       d="m 31,142 c -0.901292,-0.58246 -1.024633,-0.97549 -0.309017,-0.98469 0.655041,-0.008 1.469098,0.43469 1.809017,0.98469 0.767305,1.24153 0.421123,1.24153 -1.5,0 z"
       id="path881"
       inkscape:connector-curvature="0" />
  </g>
</svg>
